<svg width="271" height="22" viewBox="0 0 271 22" fill="none" xmlns="http://www.w3.org/2000/svg">
<path d="M11.1375 21.2669L8.38125 15.2984H4.6875V21.2669H0V0.0214844H8.25C10.6969 0.0214844 12.5906 0.667896 13.9313 1.96072C15.2672 3.24277 15.9375 5.0635 15.9375 7.43368C15.9375 10.7088 14.8172 12.9874 12.5813 14.2641L16.4625 21.2669H11.1375ZM4.6875 11.0536H8.25C9.27188 11.0536 10.0688 10.7627 10.6313 10.1702C11.1938 9.583 11.475 8.7265 11.475 7.60605C11.475 6.51793 11.1938 5.68836 10.6313 5.12814C10.0688 4.56792 9.27188 4.2878 8.25 4.2878H4.6875V11.0536Z" fill="white"/>
<path d="M31.3726 17.3453H23.2913L21.9601 21.2669H17.1226L25.0913 0.0214844H29.9288L37.7101 21.2669H32.7038L31.3726 17.3453ZM30.0038 13.2514L27.3601 5.40825L24.6788 13.2514H30.0038Z" fill="white"/>
<path d="M50.197 0V14.3719C50.197 16.629 49.6251 18.3797 48.4908 19.6294C47.3517 20.8791 45.7908 21.504 43.8033 21.504C41.2908 21.504 39.172 20.3781 37.447 18.1211L39.6033 14.5012C40.9251 16.0849 42.2189 16.8714 43.4845 16.8714C44.8064 16.8714 45.472 16.0041 45.472 14.2642V4.37406H39.1345V0H50.197Z" fill="white"/>
<path d="M65.845 17.3453H57.7637L56.4325 21.2669H51.595L59.5637 0.0214844H64.4012L72.1825 21.2669H67.1762L65.845 17.3453ZM64.4762 13.2514L61.8325 5.40825L59.1512 13.2514H64.4762Z" fill="white"/>
<path d="M100.806 21.2669H95.968L92.5368 6.59334L89.0493 21.2669H84.193L78.1555 0.0214844H83.1618L86.7805 15.6647L90.3243 0.0214844H94.918L98.5368 15.6647L102.099 0.0214844H106.899L100.806 21.2669Z" fill="white"/>
<path d="M120.826 17.3453H112.745L111.414 21.2669H106.576L114.545 0.0214844H119.383L127.164 21.2669H122.158L120.826 17.3453ZM119.458 13.2514L116.814 5.40825L114.133 13.2514H119.458Z" fill="white"/>
<path d="M133.576 16.742H141.413V21.2669H128.888V0.0214844H133.576V16.742Z" fill="white"/>
<path d="M158.126 4.2878H148.357V8.48948H157.169V12.7343H148.357V17.0221H158.426V21.2669H143.669V0.0214844H158.126V4.2878Z" fill="white"/>
<path d="M175.916 4.2878H166.147V8.48948H174.96V12.7343H166.147V17.0221H176.216V21.2669H161.46V0.0214844H175.916V4.2878Z" fill="white"/>
<path d="M179.25 0.0214844H187.182C190.093 0.0214844 192.455 1.00726 194.269 2.97343C196.093 4.94499 197.007 7.49832 197.007 10.6442C197.007 13.7793 196.079 16.3326 194.232 18.3149C192.38 20.2865 189.975 21.2669 187.013 21.2669H179.25V0.0214844ZM183.938 4.3309V16.9575H187.294C188.729 16.9575 189.91 16.3757 190.838 15.2122C191.761 14.0486 192.225 12.5403 192.225 10.6873C192.225 8.82346 191.738 7.29901 190.763 6.11931C189.797 4.92883 188.574 4.3309 187.088 4.3309H183.938Z" fill="white"/>
<path d="M217.882 17.3453H209.801L208.469 21.2669H203.632L211.601 0.0214844H216.438L224.219 21.2669H219.213L217.882 17.3453ZM216.513 13.2514L213.869 5.40825L211.188 13.2514H216.513Z" fill="white"/>
<path d="M225.944 0.0214844H234.681C236.753 0.0214844 238.399 0.506293 239.613 1.46514C240.836 2.42937 241.45 3.72219 241.45 5.34361C241.45 6.45328 241.169 7.42829 240.606 8.27401C240.044 9.10896 239.275 9.69073 238.3 10.0193C239.449 10.2779 240.367 10.8974 241.056 11.8724C241.741 12.8366 242.088 14.0055 242.088 15.3845C242.088 17.1837 241.45 18.6112 240.175 19.6724C238.9 20.739 237.175 21.2669 235 21.2669H225.944V0.0214844ZM230.613 4.15852V8.53258H234.419C235.094 8.53258 235.628 8.33865 236.031 7.95081C236.444 7.55219 236.65 7.00274 236.65 6.31323C236.65 5.63988 236.444 5.11737 236.031 4.74029C235.628 4.35245 235.094 4.15852 234.419 4.15852H230.613ZM230.613 12.411V17.1083H234.419C235.291 17.1083 235.98 16.9036 236.481 16.4834C236.978 16.0525 237.231 15.4653 237.231 14.7166C237.231 14.0163 236.978 13.4561 236.481 13.0359C235.98 12.6211 235.291 12.411 234.419 12.411H230.613Z" fill="white"/>
<path d="M249.504 21.2669H244.816V0.0214844H249.504V21.2669Z" fill="white"/>
<path d="M253.21 0.0214844H261.141C264.052 0.0214844 266.415 1.00726 268.229 2.97343C270.052 4.94499 270.966 7.49832 270.966 10.6442C270.966 13.7793 270.038 16.3326 268.191 18.3149C266.34 20.2865 263.935 21.2669 260.972 21.2669H253.21V0.0214844ZM257.897 4.3309V16.9575H261.254C262.688 16.9575 263.869 16.3757 264.797 15.2122C265.721 14.0486 266.185 12.5403 266.185 10.6873C266.185 8.82346 265.697 7.29901 264.722 6.11931C263.757 4.92883 262.533 4.3309 261.047 4.3309H257.897Z" fill="white"/>
</svg>
