<svg width="46" height="43" viewBox="0 0 46 43" fill="none" xmlns="http://www.w3.org/2000/svg">
<ellipse cx="23.3033" cy="21.3532" rx="22.5889" ry="21.3532" fill="#2AD882"/>
<path d="M17.8253 23.06C16.9593 23.4269 16.0075 23.6536 15.0183 23.6536C10.9496 23.6288 7.66479 20.2077 7.66479 16.0117C7.66479 11.8156 10.9496 8.3739 15.0183 8.3739C19.087 8.3739 22.3718 11.795 22.3718 16.0117C23.4021 27.2355 11.3826 35.17 11.3826 35.17L10.4345 33.917C10.4345 33.8922 18.3853 27.0953 17.8253 23.06Z" fill="white"/>
<path d="M34.0638 23.06C33.1467 23.4269 32.1386 23.6536 31.091 23.6536C26.782 23.6536 23.3032 20.2324 23.3032 16.0117C23.3032 11.795 26.782 8.3739 31.091 8.3739C35.4 8.3739 38.8749 11.795 38.8749 16.0117C39.9699 27.2355 27.2406 35.17 27.2406 35.17L26.2325 33.917C26.2325 33.8922 34.6568 27.0953 34.0638 23.06Z" fill="white"/>
</svg>
