<svg width="184" height="43" viewBox="0 0 184 43" fill="none" xmlns="http://www.w3.org/2000/svg">
<path d="M21.3653 0C9.68753 0 0.182059 9.55805 0.177105 21.3057C0.175867 25.0609 1.1518 28.7264 3.00584 31.9573L0 43L11.2319 40.0369C14.327 41.7346 17.8108 42.6288 21.3567 42.6301H21.3653C33.0419 42.6301 42.5474 33.0708 42.5523 21.3231C42.5548 15.6299 40.3528 10.2767 36.3524 6.24997C32.3521 2.22199 27.0327 0.00249102 21.3653 0ZM21.3653 39.0318H21.3579C18.1985 39.0318 15.0985 38.1761 12.3949 36.5632L11.7521 36.1796L5.08775 37.9382L6.86623 31.4031L6.44762 30.733C4.68524 27.9131 3.75389 24.6536 3.75513 21.3082C3.75884 11.5434 11.6592 3.59952 21.3728 3.59952C26.0766 3.60077 30.498 5.44537 33.8222 8.7933C37.1475 12.14 38.9768 16.5902 38.9755 21.3219C38.9718 31.0867 31.0714 39.0318 21.3653 39.0318ZM31.0244 25.7684C30.4955 25.5018 27.8922 24.214 27.4067 24.0359C26.9212 23.8578 26.5683 23.7693 26.2153 24.3024C25.8623 24.8355 24.848 26.0349 24.5396 26.3899C24.2312 26.7461 23.9216 26.7897 23.3928 26.5231C22.8639 26.2566 21.1573 25.6936 19.136 23.8802C17.5619 22.469 16.4993 20.7253 16.1909 20.1922C15.8825 19.6591 16.1574 19.3714 16.4237 19.1061C16.6615 18.8682 16.9526 18.4846 17.2176 18.1732C17.4826 17.8619 17.5706 17.6402 17.7464 17.2839C17.9223 16.929 17.8344 16.6176 17.7019 16.3511C17.5693 16.0845 16.5104 13.464 16.0695 12.3978C15.6398 11.3603 15.2038 11.4998 14.8781 11.4836C14.5697 11.4674 14.2167 11.4649 13.8638 11.4649C13.5108 11.4649 12.9374 11.5982 12.4519 12.1313C11.9664 12.6644 10.5991 13.9522 10.5991 16.5728C10.5991 19.1933 12.4964 21.7254 12.7602 22.0804C13.0253 22.4354 16.4931 27.8135 21.8038 30.1189C23.067 30.667 24.0529 30.9945 24.822 31.2399C26.0902 31.6447 27.2445 31.5874 28.156 31.4504C29.1728 31.2972 31.2882 30.1625 31.7291 28.9183C32.17 27.6752 32.17 26.6091 32.0375 26.3861C31.905 26.1644 31.552 26.0312 31.0231 25.7646L31.0244 25.7684ZM68.5063 25.4433H68.4493L64.937 11.1922H60.7038L57.1332 25.2689H57.0762L53.8227 11.1922H49.3021L54.7441 31.8739H59.3228L62.7485 17.7959H62.8067L66.2906 31.8739H70.7827L76.3113 11.1922H71.8775L68.5075 25.4433H68.5063ZM90.102 18.1869C89.6995 17.6564 89.1471 17.2416 88.4474 16.9414C87.7464 16.6438 86.8485 16.4943 85.7549 16.4943C84.987 16.4943 84.2006 16.6911 83.3931 17.0884C82.5868 17.4832 81.9254 18.1159 81.4065 18.9853H81.3198V11.1922H77.2315V31.8726H81.3198V24.0234C81.3198 22.4977 81.5687 21.4029 82.0691 20.7353C82.5682 20.0702 83.3745 19.7364 84.4879 19.7364C85.4663 19.7364 86.1475 20.0403 86.5326 20.6493C86.9166 21.2571 87.1086 22.1788 87.1086 23.4144V31.8726H91.1981V22.6621C91.1981 21.7354 91.1151 20.8909 90.9528 20.1274C90.7894 19.3664 90.507 18.7188 90.1032 18.1869H90.102ZM106.947 28.5421V20.7514C106.947 19.8422 106.746 19.1136 106.341 18.5643C105.939 18.0138 105.421 17.5841 104.788 17.2752C104.154 16.9663 103.453 16.7583 102.685 16.6525C101.917 16.5466 101.159 16.493 100.411 16.493C99.5864 16.493 98.7653 16.574 97.9504 16.7397C97.1329 16.9041 96.3998 17.1793 95.7471 17.5654C95.0944 17.9515 94.5556 18.4634 94.1358 19.0999C93.7122 19.7376 93.472 20.5385 93.415 21.505H97.5033C97.5801 20.6942 97.85 20.1137 98.3108 19.7663C98.7715 19.4188 99.4044 19.2456 100.211 19.2456C100.575 19.2456 100.915 19.2693 101.232 19.3179C101.548 19.3664 101.827 19.4611 102.067 19.6068C102.307 19.7513 102.499 19.9543 102.643 20.2159C102.787 20.4762 102.859 20.8299 102.859 21.2721C102.877 21.698 102.752 22.0194 102.485 22.2423C102.215 22.4653 101.85 22.6347 101.39 22.7492C100.929 22.8663 100.401 22.9535 99.8056 23.0096C99.2099 23.0693 98.6055 23.1478 97.9925 23.2425C97.3769 23.3396 96.7676 23.4692 96.1645 23.6336C95.5601 23.7967 95.0201 24.0446 94.5507 24.3709C94.0801 24.701 93.6961 25.1394 93.3976 25.6899C93.1004 26.2404 92.9518 26.9416 92.9518 27.7898C92.9518 28.562 93.0818 29.2284 93.3407 29.7876C93.5995 30.3494 93.9599 30.8114 94.4206 31.1789C94.8814 31.5463 95.4189 31.8166 96.0332 31.9909C96.6462 32.1641 97.3101 32.2512 98.0197 32.2512C98.9412 32.2512 99.844 32.1155 100.726 31.8465C101.609 31.5737 102.378 31.1029 103.031 30.4253C103.049 30.6769 103.083 30.9235 103.131 31.1639C103.179 31.4043 103.241 31.6422 103.318 31.8726H107.465C107.273 31.565 107.138 31.1016 107.061 30.4826C106.983 29.8648 106.944 29.2197 106.944 28.5421H106.947ZM102.859 26.0797C102.859 26.3139 102.835 26.6228 102.787 27.0076C102.74 27.395 102.61 27.7749 102.398 28.1523C102.186 28.5284 101.859 28.8535 101.418 29.1225C100.977 29.394 100.353 29.5286 99.5455 29.5286C99.2198 29.5286 98.9028 29.4999 98.5956 29.4401C98.2885 29.3828 98.0197 29.2807 97.7894 29.1362C97.559 28.9917 97.3769 28.7937 97.2419 28.5421C97.1082 28.2905 97.0401 27.9829 97.0401 27.6167C97.0401 27.2306 97.1082 26.9105 97.2419 26.6602C97.3769 26.4098 97.554 26.2018 97.7757 26.0374C97.9949 25.873 98.255 25.7435 98.5523 25.6463C98.8495 25.5504 99.1517 25.4732 99.4601 25.4146C99.7858 25.3573 100.113 25.3075 100.438 25.2702C100.767 25.2328 101.078 25.183 101.375 25.1257C101.673 25.0671 101.951 24.9949 102.211 24.9077C102.47 24.8205 102.685 24.7022 102.859 24.5465V26.081V26.0797ZM114.578 12.409H110.489V16.8978H108.013V19.6492H110.489V28.4848C110.489 29.2384 110.615 29.8462 110.864 30.3095C111.114 30.7728 111.455 31.1315 111.886 31.3819C112.318 31.6335 112.817 31.8016 113.385 31.8876C113.949 31.9735 114.551 32.0183 115.184 32.0183C115.589 32.0183 116 32.0084 116.424 31.9909C116.845 31.971 117.229 31.9336 117.576 31.8739V28.6878C117.382 28.7265 117.182 28.7576 116.97 28.775C116.759 28.795 116.539 28.8049 116.309 28.8049C115.619 28.8049 115.157 28.6878 114.926 28.4562C114.697 28.2245 114.582 27.7612 114.582 27.0649V19.6492H117.577V16.8978H114.582V12.409H114.578ZM131.479 25.3138C131.21 24.8405 130.855 24.4444 130.414 24.1255C129.973 23.8079 129.468 23.5514 128.903 23.3571C128.336 23.1652 127.755 23.0021 127.16 22.8663C126.584 22.7306 126.02 22.6048 125.462 22.4889C124.905 22.3731 124.411 22.2423 123.979 22.0991C123.548 21.9534 123.198 21.7665 122.93 21.5336C122.66 21.302 122.527 21.0043 122.527 20.6356C122.527 20.3267 122.601 20.0801 122.756 19.897C122.91 19.7139 123.098 19.5744 123.319 19.476C123.54 19.3801 123.783 19.3179 124.052 19.288C124.32 19.2593 124.571 19.2456 124.8 19.2456C125.529 19.2456 126.163 19.3851 126.702 19.6654C127.238 19.9456 127.537 20.4812 127.593 21.2721H131.48C131.403 20.3454 131.168 19.5782 130.776 18.9691C130.383 18.3613 129.888 17.8743 129.293 17.5069C128.699 17.1395 128.022 16.8792 127.262 16.7247C126.504 16.5703 125.722 16.493 124.917 16.493C124.112 16.493 123.322 16.5653 122.557 16.7085C121.788 16.8542 121.097 17.1058 120.484 17.4633C119.868 17.8208 119.375 18.3078 119 18.9255C118.625 19.5433 118.438 20.3354 118.438 21.3007C118.438 21.9571 118.573 22.5138 118.843 22.9672C119.109 23.4218 119.466 23.7967 119.905 24.0969C120.349 24.3958 120.853 24.6387 121.419 24.8205C121.985 25.0061 122.566 25.1643 123.16 25.3001C124.62 25.6089 125.758 25.9178 126.573 26.228C127.389 26.5368 127.797 27.0002 127.797 27.6179C127.797 27.9854 127.711 28.2868 127.538 28.5284C127.365 28.7713 127.149 28.9631 126.89 29.1076C126.63 29.2533 126.342 29.3604 126.026 29.4264C125.709 29.4949 125.405 29.5286 125.118 29.5286C124.714 29.5286 124.327 29.48 123.953 29.3841C123.577 29.2869 123.247 29.1375 122.958 28.9345C122.671 28.7314 122.434 28.4711 122.252 28.1523C122.071 27.8334 121.978 27.4535 121.978 27.0076H118.092C118.132 28.0115 118.356 28.8473 118.77 29.5136C119.181 30.18 119.708 30.7155 120.352 31.1216C120.995 31.5264 121.731 31.8166 122.557 31.9909C123.38 32.1641 124.225 32.2512 125.088 32.2512C125.952 32.2512 126.764 32.169 127.58 32.0059C128.396 31.8415 129.121 31.5563 129.754 31.1502C130.389 30.7454 130.899 30.2099 131.294 29.5435C131.687 28.8759 131.884 28.0514 131.884 27.0662C131.884 26.3699 131.75 25.787 131.481 25.315L131.479 25.3138ZM139.599 11.1922L131.825 31.8739H136.374L137.985 27.268H145.673L147.227 31.8739H151.922L144.234 11.1922H139.597H139.599ZM139.168 23.8802L141.845 16.2913H141.902L144.494 23.8802H139.168ZM166.06 18.9268C165.504 18.1932 164.803 17.604 163.959 17.1606C163.114 16.716 162.107 16.4943 160.937 16.4943C160.014 16.4943 159.171 16.6774 158.403 17.0436C157.632 17.411 157.001 18.0001 156.503 18.8109H156.445V16.8978H152.556V37.1175H156.648V30.0205H156.703C157.203 30.7554 157.842 31.3096 158.621 31.6845C159.396 32.0607 160.247 32.25 161.168 32.25C162.263 32.25 163.218 32.0358 164.033 31.6123C164.849 31.1876 165.53 30.6171 166.078 29.9022C166.625 29.1873 167.031 28.3677 167.303 27.4411C167.569 26.5132 167.705 25.5479 167.705 24.544C167.705 23.4816 167.569 22.464 167.303 21.4875C167.031 20.5136 166.62 19.6579 166.063 18.9243L166.06 18.9268ZM163.441 26.1968C163.325 26.7772 163.128 27.2829 162.85 27.7176C162.571 28.1523 162.207 28.506 161.754 28.775C161.305 29.0453 160.742 29.1823 160.071 29.1823C159.4 29.1823 158.863 29.0465 158.403 28.775C157.942 28.506 157.572 28.1523 157.293 27.7176C157.014 27.2829 156.814 26.7772 156.689 26.1968C156.564 25.6177 156.503 25.0285 156.503 24.4319C156.503 23.8353 156.559 23.2138 156.674 22.6359C156.79 22.0567 156.986 21.5448 157.266 21.0989C157.542 20.6555 157.909 20.2943 158.361 20.0141C158.811 19.7339 159.371 19.5919 160.044 19.5919C160.716 19.5919 161.25 19.7339 161.7 20.0141C162.15 20.2931 162.521 20.6593 162.808 21.1139C163.095 21.5685 163.301 22.0854 163.427 22.6633C163.554 23.2425 163.613 23.8328 163.613 24.4319C163.613 25.031 163.557 25.6189 163.442 26.1968H163.441ZM183.595 21.49C183.326 20.516 182.914 19.6604 182.357 18.9268C181.799 18.1932 181.101 17.604 180.256 17.1606C179.41 16.716 178.402 16.4943 177.232 16.4943C176.311 16.4943 175.465 16.6774 174.699 17.0436C173.931 17.411 173.297 18.0001 172.798 18.8109H172.742V16.8978H168.854V37.1175H172.943V30.0205H173.001C173.5 30.7554 174.139 31.3096 174.916 31.6845C175.692 32.0607 176.543 32.25 177.464 32.25C178.558 32.25 179.512 32.0358 180.329 31.6123C181.144 31.1876 181.826 30.6171 182.373 29.9022C182.921 29.1873 183.327 28.3677 183.596 27.4411C183.866 26.5132 184 25.5479 184 24.544C184 23.4816 183.866 22.464 183.596 21.4875L183.595 21.49ZM179.736 26.1968C179.622 26.7772 179.425 27.2829 179.146 27.7176C178.866 28.1523 178.502 28.506 178.051 28.775C177.601 29.0453 177.04 29.1823 176.367 29.1823C175.695 29.1823 175.157 29.0465 174.696 28.775C174.234 28.506 173.867 28.1523 173.587 27.7176C173.309 27.2829 173.107 26.7772 172.982 26.1968C172.857 25.6177 172.795 25.0285 172.795 24.4319C172.795 23.8353 172.854 23.2138 172.969 22.6359C173.084 22.0567 173.281 21.5448 173.559 21.0989C173.837 20.6555 174.202 20.2943 174.654 20.0141C175.104 19.7339 175.666 19.5919 176.339 19.5919C177.011 19.5919 177.542 19.7339 177.993 20.0141C178.445 20.2931 178.814 20.6593 179.103 21.1139C179.392 21.5685 179.598 22.0854 179.722 22.6633C179.849 23.2425 179.909 23.8328 179.909 24.4319C179.909 25.031 179.851 25.6189 179.736 26.1968Z" fill="#25D366"/>
</svg>
